<svg id="Layer_1" height="512" viewBox="0 0 100 100" width="512" xmlns="http://www.w3.org/2000/svg"><path d="m43.333 71.666h33.333v5h-33.333z"/><path d="m60 61.665h16.667v5.001h-16.667z"/><path d="m63.333 51.667h13.334v5h-13.334z"/><path d="m38.334 30c-10.125 0-18.334 8.21-18.334 18.333 0 3.857 1.197 7.432 3.23 10.383l-12.258 12.261c-1.296 1.295-1.296 3.418 0 4.713 1.295 1.303 3.418 1.303 4.713 0l12.259-12.259c2.954 2.037 6.532 3.235 10.391 3.235 10.125 0 18.333-8.206 18.333-18.333-.001-10.123-8.209-18.333-18.334-18.333zm0 29.999c-6.444 0-11.668-5.221-11.668-11.666 0-6.441 5.224-11.666 11.668-11.666 6.443 0 11.666 5.225 11.666 11.666 0 6.445-5.223 11.666-11.666 11.666z"/><path d="m66.667 10h-30c-3.683 0-6.667 2.982-6.667 6.664v8.336h6.667v-8.334h23.333v16.666c0 3.68 2.984 6.668 6.667 6.668h16.666v43.33h-46.666v-11.664h-6.667v11.666c0 3.682 2.988 6.668 6.667 6.668h46.667c3.678 0 6.666-2.986 6.666-6.668v-50zm0 23.332v-13.904l13.902 13.904z"/></svg>