<?xml version="1.0" encoding="UTF-8" standalone="no"?>
<!-- Created with Inkscape (http://www.inkscape.org/) -->

<svg
   version="1.1"
   id="svg135"
   xml:space="preserve"
   width="682.66669"
   height="682.66669"
   viewBox="0 0 682.66669 682.66669"
   xmlns="http://www.w3.org/2000/svg"
   xmlns:svg="http://www.w3.org/2000/svg"><defs
     id="defs139"><clipPath
       clipPathUnits="userSpaceOnUse"
       id="clipPath149"><path
         d="M 0,512 H 512 V 0 H 0 Z"
         id="path147" /></clipPath></defs><g
     id="g141"
     transform="matrix(1.3333333,0,0,-1.3333333,0,682.66667)"><g
       id="g143"><g
         id="g145"
         clip-path="url(#clipPath149)"><g
           id="g151"
           transform="translate(220.2168,311.6978)"><path
             d="m 0,0 c 0,-27.105 -22.056,-49.161 -49.161,-49.161 -27.114,0 -49.171,22.056 -49.171,49.161 0,27.115 22.057,49.161 49.171,49.161 C -22.056,49.161 0,27.115 0,0"
             style="fill:#000000;fill-opacity:1;fill-rule:nonzero;stroke:none"
             id="path153" /></g><g
           id="g155"
           transform="translate(171.0557,232.5425)"><path
             d="m 0,0 c -43.651,0 -79.165,35.514 -79.165,79.155 0,43.652 35.514,79.156 79.165,79.156 43.643,0 79.155,-35.504 79.155,-79.156 C 79.155,35.514 43.643,0 0,0 m 257.902,176.577 c -83.184,35.444 -181.675,66.148 -272.039,50.381 -44.721,-7.789 -93.083,-30.674 -124.277,-67.527 -31.482,-37.148 -41.602,-82.506 -24.146,-129.166 20.359,-54.369 79.796,-105.34 142.744,-110.2 55.65,-4.299 97.822,40.502 149.012,57.289 30.655,10.048 62.089,9.739 92.723,17.477 29.245,7.399 73.337,24.965 98.861,53.02 10.739,11.808 18.198,25.465 19.877,41.003 4.769,44.231 -50.97,74.176 -82.755,87.723"
             style="fill:#000000;fill-opacity:1;fill-rule:nonzero;stroke:none"
             id="path157" /></g><g
           id="g159"
           transform="translate(511.6523,257.6777)"><path
             d="m 0,0 v -25.395 c 0,-0.5 -0.029,-1.01 -0.08,-1.51 -5.698,-56.129 -69.696,-92.702 -122.767,-106.96 -13.498,-3.629 -26.945,-5.569 -39.963,-7.448 -43.102,-6.242 -52.965,-9.613 -94.342,-34.514 -30.513,-18.359 -60.664,-36.305 -98.322,-33.254 -25.015,2.05 -50.541,11.478 -73.826,27.245 -21.726,14.717 -41.082,34.593 -55.979,57.48 -15.617,23.995 -24.916,52.18 -26.186,79.364 -0.01,0.241 -0.019,0.471 -0.019,0.71 v 0.89 l 0.509,-0.75 c 16.947,-24.495 38.943,-45.761 63.619,-61.498 31.79,-20.266 66,-29.714 94.432,-29.714 39.832,0 72.987,18.776 102.241,35.353 16.767,9.488 32.594,18.457 48.631,23.715 27.118,8.897 58.132,8.665 90.733,16.907 C -94.212,-55.05 -36.533,-38.183 0,0"
             style="fill:#000000;fill-opacity:1;fill-rule:nonzero;stroke:none"
             id="path161" /></g></g></g></g></svg>
