<svg id="Layer_1" enable-background="new 0 0 512 512" height="512" viewBox="0 0 512 512" width="512" xmlns="http://www.w3.org/2000/svg"><g id="Layer_2_00000118358193141778098590000018376260449611142794_"><g id="_03.download_arrow"><path d="m255.5 511.9c-41.6 0-83.2 0-124.7 0-57-.1-98.1-41-98.4-98-.1-19.9-.1-39.8 0-59.7.1-20.5 12.5-33.7 31.6-33.8s31.6 13.1 31.8 33.6c.1 20.2-.1 40.5.1 60.8.2 21.2 12.6 33.6 34 33.6h252.7c21.3 0 33.8-12.4 34-33.6.1-20.2-.1-40.5.1-60.8.1-20.5 12.6-33.6 31.7-33.6s31.7 13.2 31.5 33.8c-.2 25.9 1.2 52.1-2 77.6-6 46.8-45.8 79.8-93.2 80-43.2.3-86.2.1-129.2.1z"/><path d="m287.7 243c4.8-4.5 7.7-7 10.3-9.6 20.3-20.5 40.4-41.1 60.8-61.4 14.5-14.5 34.6-15.5 47.6-2.9s12.5 33.4-1.7 47.8c-41.3 41.6-82.8 83.1-124.5 124.5-14.7 14.5-33.8 14.6-48.4 0-41.8-41.6-83.6-83.4-125.1-125.3-13.7-13.8-13.8-34.6-1-47s33-11.8 46.9 2c20.7 20.6 41 41.4 61.5 62.2 2.6 2.7 5.5 5.1 9.7 9.1.3-5.7.6-9.4.6-13.2 0-65.4-.1-130.9.1-196.3.1-24.5 21.6-39.2 44.1-30.4 12.4 4.9 19.1 15.7 19.1 31.5.1 64.7.1 129.5 0 194.2z"/></g></g></svg>