<?xml version="1.0" encoding="UTF-8"?>
<svg xmlns="http://www.w3.org/2000/svg" viewBox="0 0 370.85 512">
  <defs>
    <style>
      .cls-1 {
        opacity: .51;
      }

      .cls-2 {
        fill: #d3dbde;
      }

      .cls-3 {
        fill: #455d66;
      }

      .cls-4 {
        opacity: .21;
      }
    </style>
  </defs>
  <g id="Lager_7" data-name="Lager 7">
    <path class="cls-3" d="M185.43,0C83.18,0,0,83.18,0,185.43c0,126.89,165.94,313.17,173,321.04,6.64,7.39,18.22,7.38,24.85,0,7.07-7.87,173-194.15,173-321.04C370.85,83.18,287.67,0,185.43,0Z"/>
    <g id="_38" data-name="38">
      <path class="cls-2" d="M255.64,55.86c-8.33,0-15.08,6.75-15.08,15.08v19.6h-110.27v-19.6c0-8.33-6.75-15.08-15.08-15.08s-15.08,6.75-15.08,15.08v253.36c0,8.33,6.75,15.08,15.08,15.08s15.08-6.75,15.08-15.08v-19.59h110.27v19.59c0,8.33,6.75,15.08,15.08,15.08s15.08-6.75,15.08-15.08V70.94c0-8.33-6.75-15.08-15.08-15.08Zm-125.35,124.24h110.27v35.06h-110.27v-35.06Zm110.27-59.39v29.23h-110.27v-29.23h110.27Zm-110.27,153.84v-29.23h110.27v29.23h-110.27Z"/>
    </g>
  </g>
  <g id="Shadow">
    <g class="cls-4">
      <g class="cls-1">
        <path d="M185.43,20c91.21,0,165.43,74.21,165.43,165.43,0,48.13-27.83,115.23-80.48,194.04-36.92,55.26-74.96,99.5-84.94,110.86-9.98-11.36-48.02-55.6-84.94-110.86C47.83,300.66,20,233.56,20,185.43,20,94.21,94.21,20,185.43,20M185.43,0C83.18,0,0,83.18,0,185.43,0,312.31,165.94,498.59,173,506.46c3.32,3.69,7.87,5.54,12.42,5.54s9.11-1.85,12.42-5.54c7.07-7.87,173-194.15,173-321.03C370.85,83.18,287.67,0,185.43,0h0Z"/>
      </g>
    </g>
  </g>
</svg>