<?xml version="1.0" encoding="UTF-8"?>
<svg xmlns="http://www.w3.org/2000/svg" viewBox="0 0 390.85 532">
  <defs>
    <style>
      .cls-1 {
        opacity: .51;
      }

      .cls-2 {
        fill: #d3dbde;
      }

      .cls-3 {
        fill: #455d66;
      }

      .cls-4 {
        opacity: .21;
      }
    </style>
  </defs>
  <g id="Lager_7" data-name="Lager 7">
    <path class="cls-3" d="M195.43,10C93.18,10,10,93.18,10,195.43c0,126.89,165.94,313.17,173,321.04,6.64,7.39,18.22,7.38,24.85,0,7.07-7.87,173-194.15,173-321.04,0-102.24-83.18-185.43-185.43-185.43Z"/>
    <path class="cls-2" d="M233.56,123.17c-4.05-1.67-5.97-6.31-4.29-10.36,1.67-4.05,6.31-5.97,10.36-4.29l25.93,10.73-11.01-43.3c-.62-2.43-2.35-4.43-4.67-5.38l-51.43-21.11c-1.93-.79-4.09-.79-6.02,0l-51.43,21.11c-2.32,.95-4.06,2.95-4.67,5.38l-23.56,90.07c-.97,3.52-4.16,5.83-7.64,5.83-.7,0-1.4-.09-2.11-.29-4.22-1.16-6.7-5.53-5.54-9.75l4.16-15.11-14.15,6.32-25.97,126.08c-1.01,4.92,2.74,9.53,7.76,9.53h59.61l11.33-80.62c.3-2.12,1.44-4.03,3.17-5.3l47.37-34.65c2.79-2.04,6.57-2.04,9.36,0l47.37,34.65c1.73,1.26,2.87,3.17,3.17,5.3l11.33,80.62h59.6c5.02,0,8.78-4.61,7.76-9.53l-25.97-126.08-69.81-29.86Z"/>
    <path class="cls-2" d="M200.27,315.22l44.99-44.99c1.28-1.28,1.99-3,1.99-4.82s-.71-3.54-1.99-4.82l-4.09-4.08c-1.28-1.28-2.99-1.99-4.82-1.99s-3.6,.71-4.88,1.99l-26.3,26.25v-83.39c0-3.76-2.94-6.73-6.7-6.73h-5.78c-3.76,0-7,2.97-7,6.73v83.68l-26.45-26.54c-1.28-1.28-2.95-1.99-4.78-1.99s-3.51,.71-4.8,1.99l-4.07,4.08c-1.28,1.28-1.98,2.99-1.98,4.82s.71,3.54,1.99,4.82l44.99,44.99c1.29,1.29,3.01,2,4.84,1.99,1.83,0,3.56-.7,4.84-1.99Z"/>
  </g>
  <g id="Shadow">
    <g class="cls-4">
      <g class="cls-1">
        <path d="M195.43,30c91.21,0,165.43,74.21,165.43,165.43,0,48.13-27.83,115.23-80.48,194.04-36.92,55.26-74.96,99.5-84.94,110.86-9.98-11.36-48.02-55.6-84.94-110.86C57.83,310.66,30,243.56,30,195.43,30,104.21,104.21,30,195.43,30m0-20C93.18,10,10,93.18,10,195.43c0,126.89,165.94,313.17,173,321.03,3.32,3.69,7.87,5.54,12.42,5.54s9.11-1.85,12.42-5.54c7.07-7.87,173-194.15,173-321.03,0-102.24-83.18-185.43-185.43-185.43h0Z"/>
      </g>
    </g>
  </g>
</svg>