<?xml version="1.0" encoding="UTF-8"?>
<svg xmlns="http://www.w3.org/2000/svg" viewBox="0 0 370.85 512">
  <defs>
    <style>
      .cls-1 {
        opacity: .51;
      }

      .cls-2 {
        fill: #d3dbde;
      }

      .cls-3 {
        fill: #455d66;
      }

      .cls-4 {
        opacity: .21;
      }
    </style>
  </defs>
  <g id="Lager_7" data-name="Lager 7">
    <path class="cls-3" d="M185.43,0C83.18,0,0,83.18,0,185.43c0,126.89,165.94,313.17,173,321.04,6.64,7.39,18.22,7.38,24.85,0,7.07-7.87,173-194.15,173-321.04C370.85,83.18,287.67,0,185.43,0Z"/>
    <path class="cls-2" d="M223.56,113.17c-4.05-1.67-5.97-6.31-4.29-10.36,1.67-4.05,6.31-5.97,10.36-4.29l25.93,10.73-11.01-43.3c-.62-2.43-2.35-4.43-4.67-5.38l-51.43-21.11c-1.93-.79-4.09-.79-6.02,0l-51.43,21.11c-2.32,.95-4.06,2.95-4.67,5.38l-23.56,90.07c-.97,3.52-4.16,5.83-7.64,5.83-.7,0-1.4-.09-2.11-.29-4.22-1.16-6.7-5.53-5.54-9.75l4.16-15.11-14.15,6.32-25.97,126.08c-1.01,4.92,2.74,9.53,7.76,9.53h59.61l11.33-80.62c.3-2.12,1.44-4.03,3.17-5.3l47.37-34.65c2.79-2.04,6.57-2.04,9.36,0l47.37,34.65c1.73,1.26,2.87,3.17,3.17,5.3l11.33,80.62h59.6c5.02,0,8.78-4.61,7.76-9.53l-25.97-126.08-69.81-29.86Z"/>
  </g>
  <g id="Shadow">
    <g class="cls-4">
      <g class="cls-1">
        <path d="M185.43,20c91.21,0,165.43,74.21,165.43,165.43,0,48.13-27.83,115.23-80.48,194.04-36.92,55.26-74.96,99.5-84.94,110.86-9.98-11.36-48.02-55.6-84.94-110.86C47.83,300.66,20,233.56,20,185.43,20,94.21,94.21,20,185.43,20M185.43,0C83.18,0,0,83.18,0,185.43,0,312.31,165.94,498.59,173,506.46c3.32,3.69,7.87,5.54,12.42,5.54s9.11-1.85,12.42-5.54c7.07-7.87,173-194.15,173-321.03C370.85,83.18,287.67,0,185.43,0h0Z"/>
      </g>
    </g>
  </g>
</svg>