<?xml version="1.0" encoding="UTF-8"?>
<svg xmlns="http://www.w3.org/2000/svg" viewBox="0 0 390.85 532">
  <defs>
    <style>
      .cls-1 {
        opacity: .51;
      }

      .cls-2 {
        fill: #d3dbde;
      }

      .cls-3 {
        fill: #b65c40;
      }

      .cls-4 {
        opacity: .21;
      }
    </style>
  </defs>
  <g id="Custom">
    <path class="cls-3" d="M195.43,10C93.18,10,10,93.18,10,195.43c0,126.89,165.94,313.17,173,321.04,6.64,7.39,18.22,7.38,24.85,0,7.07-7.87,173-194.15,173-321.04,0-102.24-83.18-185.43-185.43-185.43Z"/>
    <g>
      <path class="cls-2" d="M320.81,170.37l-19.27-3.85c-2.12-7.03-4.93-13.81-8.39-20.26l10.9-16.35c2.05-3.07,1.64-7.16-.97-9.77l-29.2-29.2c-2.61-2.61-6.7-3.01-9.77-.97l-16.35,10.9c-6.45-3.46-13.23-6.27-20.26-8.39l-3.85-19.27c-.72-3.62-3.9-6.22-7.59-6.22h-41.29c-3.69,0-6.87,2.6-7.59,6.22l-3.85,19.27c-7.03,2.12-13.81,4.93-20.26,8.39l-16.35-10.9c-3.07-2.05-7.16-1.64-9.77,.97l-29.2,29.2c-2.61,2.61-3.01,6.7-.97,9.77l10.9,16.35c-3.46,6.45-6.27,13.24-8.39,20.26l-19.27,3.85c-3.62,.72-6.22,3.9-6.22,7.59v41.29c0,3.69,2.6,6.87,6.22,7.59l19.27,3.85c2.12,7.03,4.93,13.81,8.39,20.26l-10.9,16.35c-2.05,3.07-1.64,7.16,.97,9.77l29.2,29.2c2.61,2.61,6.7,3.01,9.77,.97l16.01-10.67v-48.6c-12.12-12.91-19.57-30.24-19.57-49.35,0-39.91,32.35-72.26,72.26-72.26s72.26,32.35,72.26,72.26c0,19.11-7.45,36.45-19.57,49.35v48.6l16.01,10.67c1.31,.87,2.81,1.3,4.29,1.3,2,0,3.98-.77,5.48-2.27l29.2-29.2c2.61-2.61,3.01-6.7,.97-9.77l-10.9-16.35c3.46-6.45,6.27-13.24,8.39-20.26l19.27-3.85c3.62-.72,6.22-3.9,6.22-7.59v-41.29c0-3.69-2.6-6.87-6.22-7.59h0Z"/>
      <path class="cls-2" d="M219.95,156.19c-3.9-2.26-8.84,.14-9.48,4.59l-4.72,32.66h-20.64l-4.72-32.66c-.64-4.46-5.59-6.85-9.48-4.59-15.12,8.76-24.51,25.01-24.51,42.42,0,18.87,10.57,35.74,27.57,44.04l.81,.4v80.46c0,4.28,3.47,7.74,7.74,7.74h25.81c4.28,0,7.74-3.47,7.74-7.74v-80.46l.81-.4c17.01-8.3,27.57-25.18,27.57-44.04,0-17.41-9.39-33.66-24.51-42.42h0Z"/>
    </g>
  </g>
  <g id="Shadow">
    <g class="cls-4">
      <g class="cls-1">
        <path d="M195.43,30c91.21,0,165.43,74.21,165.43,165.43,0,48.13-27.83,115.23-80.48,194.04-36.92,55.26-74.96,99.5-84.94,110.86-9.98-11.36-48.02-55.6-84.94-110.86C57.83,310.66,30,243.56,30,195.43,30,104.21,104.21,30,195.43,30m0-20C93.18,10,10,93.18,10,195.43c0,126.89,165.94,313.17,173,321.03,3.32,3.69,7.87,5.54,12.42,5.54s9.11-1.85,12.42-5.54c7.07-7.87,173-194.15,173-321.03,0-102.24-83.18-185.43-185.43-185.43h0Z"/>
      </g>
    </g>
  </g>
</svg>