<?xml version="1.0" encoding="UTF-8"?>
<svg xmlns="http://www.w3.org/2000/svg" viewBox="0 0 390.85 532">
  <defs>
    <style>
      .cls-1 {
        opacity: .51;
      }

      .cls-2 {
        fill: #d3dbde;
      }

      .cls-3 {
        fill: #865058;
      }

      .cls-4 {
        opacity: .21;
      }
    </style>
  </defs>
  <g id="Lager_3" data-name="Lager 3">
    <path class="cls-3" d="M195.43,10C93.18,10,10,93.18,10,195.43c0,126.89,165.94,313.17,173,321.04,6.64,7.39,18.22,7.38,24.85,0,7.07-7.87,173-194.15,173-321.04,0-102.24-83.18-185.43-185.43-185.43Z"/>
    <g>
      <path class="cls-2" d="M301.65,294.05l-67.04-67.04,19.66-30.52c7.26-11.28,11.1-24.35,11.1-37.82,0-38.56-31.38-69.94-69.94-69.94-26.79,0-49.95,15.24-61.68,37.41l-35.55-35.55c-2.48-2.48-6.51-2.48-8.99,0s-2.48,6.51,0,8.99L227.55,237.98l.02-.03,65.09,65.09c2.48,2.48,6.51,2.48,8.99,0,2.48-2.48,2.48-6.51,0-8.99h0ZM168.47,123.27c11.15-8.5,25.5-11.19,39.32-7.43,13.08,3.58,24.2,13.59,29.01,26.12,5.3,13.8,3.87,28.66-3.91,40.76-1.91,2.96-5.83,3.79-8.79,1.91-2.96-1.9-3.81-5.84-1.91-8.79,5.57-8.66,6.56-19.34,2.73-29.32-3.39-8.82-11.24-15.88-20.49-18.41-8.28-2.28-16.72-1.16-23.94,2.71,12.71,6.24,21.29,19.22,21.29,34.2,0,3.51-2.84,6.36-6.36,6.36s-6.36-2.84-6.36-6.36c0-11.93-8.17-21.93-19.44-24.64-3.31,4.65-5.32,10.06-5.79,15.84l-10.73-10.73c2.87-9.06,8.56-17.05,15.36-22.24h0Z"/>
      <path class="cls-2" d="M182.71,215.89c0,10.33-6.17,19.56-15.72,23.51-2.01,.83-3.35,3.07-3.35,5.57v9.07c0,3.51-2.84,6.36-6.36,6.36s-6.36-2.84-6.36-6.36v-9.07c0-7.71,4.4-14.5,11.21-17.32,4.77-1.97,7.86-6.59,7.86-11.76s-3.09-9.79-7.86-11.76c-6.81-2.81-11.21-9.61-11.21-17.32v-7.48l-25.2-25.2c-.1,1.51-.23,3-.23,4.53v108.09c0,21.04,17.11,38.15,38.15,38.15,13.03,0,25.03-6.55,32.1-17.52l24.77-38.46-38.63-38.62c.41,1.83,.83,3.66,.83,5.6Z"/>
    </g>
  </g>
  <g id="Shadow">
    <g class="cls-4">
      <g class="cls-1">
        <path d="M195.43,30c91.21,0,165.43,74.21,165.43,165.43,0,48.13-27.83,115.23-80.48,194.04-36.92,55.26-74.96,99.5-84.94,110.86-9.98-11.36-48.02-55.6-84.94-110.86C57.83,310.66,30,243.56,30,195.43,30,104.21,104.21,30,195.43,30m0-20C93.18,10,10,93.18,10,195.43c0,126.89,165.94,313.17,173,321.03,3.32,3.69,7.87,5.54,12.42,5.54s9.11-1.85,12.42-5.54c7.07-7.87,173-194.15,173-321.03,0-102.24-83.18-185.43-185.43-185.43h0Z"/>
      </g>
    </g>
  </g>
</svg>