<?xml version="1.0" encoding="UTF-8"?>
<svg xmlns="http://www.w3.org/2000/svg" viewBox="0 0 390.85 532">
  <defs>
    <style>
      .cls-1 {
        opacity: .51;
      }

      .cls-2 {
        fill: #588084;
      }

      .cls-3 {
        fill: #d3dbde;
      }

      .cls-4 {
        opacity: .21;
      }
    </style>
  </defs>
  <g id="items">
    <path class="cls-2" d="M195.43,10C93.18,10,10,93.18,10,195.43c0,126.89,165.94,313.17,173,321.04,6.64,7.39,18.22,7.38,24.85,0,7.07-7.87,173-194.15,173-321.04,0-102.24-83.18-185.43-185.43-185.43Z"/>
    <g>
      <path class="cls-3" d="M218.62,85.64h-46.38c-34.31,0-62.22,27.92-62.22,62.22v127.27c0,4.68,3.8,8.48,8.48,8.48h10.75v-127.84c0-28.07,22.84-50.91,50.91-50.91h30.55c28.07,0,50.91,22.84,50.91,50.91v127.84h10.75c4.68,0,8.48-3.8,8.48-8.48v-127.27c0-34.31-27.92-62.22-62.22-62.22Z"/>
      <path class="cls-3" d="M201.08,48.87h-11.31c-12.09,0-22.24,8.48-24.82,19.8h60.96c-2.58-11.32-12.73-19.8-24.82-19.8Z"/>
      <path class="cls-3" d="M331.75,207.25h-33.94v41.86l35.06-4.67c4.22-.56,7.36-4.16,7.36-8.41v-20.29c0-4.69-3.8-8.48-8.48-8.48Z"/>
      <path class="cls-3" d="M50.62,215.74v20.29c0,4.25,3.15,7.85,7.36,8.41l35.06,4.67v-41.86H59.1c-4.69,0-8.48,3.8-8.48,8.48Z"/>
      <path class="cls-3" d="M210.7,121.84h-30.55c-13.5,0-25.18,7.92-30.64,19.36l37.05,25.06c3.9,2.6,4.95,7.87,2.35,11.77-2.6,3.9-7.87,4.95-11.77,2.35l-30.93-20.92v29.32c.49,.31-3.96-2.69,40.34,27.26,3.9,2.6,4.95,7.87,2.35,11.77-2.6,3.9-7.87,4.95-11.77,2.35l-30.93-20.91v24.78c.65,.41-2.28-1.87,41.07,32.33,3.6,3,4.09,8.35,1.09,11.95-3,3.6-8.35,4.08-11.95,1.09l-30.2-23.82v48.98c0,18.71,15.23,33.94,33.94,33.94h30.55c18.71,0,33.94-15.23,33.94-33.94v-8.86l-26.75,16.13c-4.03,2.42-9.24,1.1-11.64-2.91-2.41-4.02-1.11-9.23,2.91-11.64l35.48-21.4v-29.96l-26.75,16.13c-4.03,2.42-9.24,1.1-11.64-2.91-2.41-4.02-1.11-9.23,2.91-11.64l35.48-21.4v-29.96l-26.75,16.13c-4.03,2.42-9.24,1.1-11.64-2.91-2.41-4.02-1.11-9.23,2.91-11.64l35.48-21.4v-20.54c0-18.71-15.23-33.94-33.94-33.94Z"/>
    </g>
  </g>
  <g id="Shadow">
    <g class="cls-4">
      <g class="cls-1">
        <path d="M195.43,30c91.21,0,165.43,74.21,165.43,165.43,0,48.13-27.83,115.23-80.48,194.04-36.92,55.26-74.96,99.5-84.94,110.86-9.98-11.36-48.02-55.6-84.94-110.86C57.83,310.66,30,243.56,30,195.43,30,104.21,104.21,30,195.43,30m0-20C93.18,10,10,93.18,10,195.43c0,126.89,165.94,313.17,173,321.03,3.32,3.69,7.87,5.54,12.42,5.54s9.11-1.85,12.42-5.54c7.07-7.87,173-194.15,173-321.03,0-102.24-83.18-185.43-185.43-185.43h0Z"/>
      </g>
    </g>
  </g>
</svg>