<?xml version="1.0" encoding="UTF-8"?>
<svg xmlns="http://www.w3.org/2000/svg" viewBox="0 0 390.85 532">
  <defs>
    <style>
      .cls-1 {
        opacity: .51;
      }

      .cls-2 {
        fill: #d3dbde;
      }

      .cls-3 {
        fill: #865058;
      }

      .cls-4 {
        opacity: .21;
      }
    </style>
  </defs>
  <g id="Lager_3" data-name="Lager 3">
    <path class="cls-3" d="M195.43,10C93.18,10,10,93.18,10,195.43c0,126.89,165.94,313.17,173,321.04,6.64,7.39,18.22,7.38,24.85,0,7.07-7.87,173-194.15,173-321.04,0-102.24-83.18-185.43-185.43-185.43Z"/>
    <path class="cls-2" d="M193.71,179.79c17.99,0,33.56-6.45,46.28-19.18,12.73-12.73,19.18-28.3,19.18-46.28s-6.45-33.55-19.18-46.28c-12.73-12.72-28.3-19.17-46.28-19.17s-33.56,6.45-46.28,19.18c-12.73,12.73-19.18,28.3-19.18,46.28s6.45,33.56,19.18,46.28c12.73,12.72,28.3,19.18,46.28,19.18Z"/>
    <path class="cls-2" d="M308.25,257.85c-.37-5.3-1.11-11.07-2.2-17.17-1.1-6.15-2.52-11.96-4.22-17.27-1.76-5.49-4.14-10.91-7.1-16.1-3.06-5.39-6.66-10.09-10.7-13.95-4.22-4.04-9.4-7.29-15.38-9.66-5.96-2.36-12.56-3.55-19.63-3.55-2.77,0-5.46,1.14-10.64,4.51-3.19,2.08-6.92,4.48-11.08,7.15-3.56,2.27-8.38,4.39-14.34,6.32-5.81,1.88-11.71,2.83-17.54,2.83s-11.72-.95-17.54-2.83c-5.95-1.92-10.77-4.05-14.33-6.32-4.12-2.64-7.86-5.04-11.09-7.15-5.18-3.37-7.86-4.51-10.64-4.51-7.07,0-13.67,1.2-19.63,3.56-5.98,2.37-11.15,5.62-15.38,9.66-4.04,3.87-7.64,8.56-10.7,13.95-2.95,5.19-5.34,10.61-7.1,16.1-1.7,5.31-3.12,11.12-4.22,17.26-1.09,6.09-1.84,11.87-2.2,17.18-.36,5.2-.54,10.6-.54,16.05,0,14.19,4.51,25.67,13.4,34.14,8.78,8.36,20.41,12.6,34.54,12.6h130.86c14.13,0,25.75-4.24,34.54-12.6,8.9-8.46,13.41-19.95,13.41-34.14,0-5.48-.19-10.88-.55-16.05Z"/>
  </g>
  <g id="Shadow">
    <g class="cls-4">
      <g class="cls-1">
        <path d="M195.43,30c91.21,0,165.43,74.21,165.43,165.43,0,48.13-27.83,115.23-80.48,194.04-36.92,55.26-74.96,99.5-84.94,110.86-9.98-11.36-48.02-55.6-84.94-110.86C57.83,310.66,30,243.56,30,195.43,30,104.21,104.21,30,195.43,30m0-20C93.18,10,10,93.18,10,195.43c0,126.89,165.94,313.17,173,321.03,3.32,3.69,7.87,5.54,12.42,5.54s9.11-1.85,12.42-5.54c7.07-7.87,173-194.15,173-321.03,0-102.24-83.18-185.43-185.43-185.43h0Z"/>
      </g>
    </g>
  </g>
</svg>