<?xml version="1.0" encoding="UTF-8"?>
<svg xmlns="http://www.w3.org/2000/svg" viewBox="0 0 390.85 532">
  <defs>
    <style>
      .cls-1 {
        opacity: .51;
      }

      .cls-2 {
        fill: #d3dbde;
      }

      .cls-3 {
        fill: #865058;
      }

      .cls-4 {
        opacity: .21;
      }
    </style>
  </defs>
  <g id="Lager_3" data-name="Lager 3">
    <path class="cls-3" d="M195.43,10C93.18,10,10,93.18,10,195.43c0,126.89,165.94,313.17,173,321.04,6.64,7.39,18.22,7.38,24.85,0,7.07-7.87,173-194.15,173-321.04,0-102.24-83.18-185.43-185.43-185.43Z"/>
    <g>
      <path class="cls-2" d="M79.88,176.31c0,15.2,6.03,29.78,16.79,40.53l14.87,14.87v71.22c0,13.11,10.64,23.74,23.74,23.74,4.9,0,9.41-2.62,11.84-6.88l19.87-34.78c4.59-8.03,7.23-17,7.75-26.2l-73.47-106.13c-12.01,1.18-21.39,11.3-21.39,23.62h0Z"/>
      <path class="cls-2" d="M167.74,84.09h-56.95c-5.28,0-8.72,5.56-6.36,10.29l4.87,9.74h65.54v-12.92c0-3.93-3.18-7.11-7.11-7.11h0Z"/>
      <path class="cls-2" d="M112.02,118.33h62.82v20.03h-62.82v-20.03Z"/>
      <path class="cls-2" d="M118.48,152.57l11.94,17.25,17.25-17.25h-29.2Z"/>
      <path class="cls-2" d="M174.85,233.99v-40.07l-16.39,16.39,16.39,23.68Z"/>
      <path class="cls-2" d="M138.65,181.7l11.58,16.73,24.62-24.62v-21.25h-7.07l-29.13,29.13Z"/>
      <path class="cls-2" d="M199.61,176.31c0,15.2,6.03,29.78,16.79,40.53l14.87,14.87v71.22c0,13.11,10.64,23.74,23.74,23.74,4.9,0,9.41-2.62,11.84-6.88l19.87-34.78c4.59-8.03,7.23-17,7.75-26.2l-73.47-106.13c-12.01,1.18-21.39,11.3-21.39,23.62h0Z"/>
      <path class="cls-2" d="M287.47,84.09h-56.95c-5.28,0-8.72,5.56-6.36,10.29l4.87,9.74h65.54v-12.92c0-3.93-3.18-7.11-7.11-7.11h0Z"/>
      <path class="cls-2" d="M231.75,118.33h62.82v20.03h-62.82v-20.03Z"/>
      <path class="cls-2" d="M238.21,152.57l11.94,17.25,17.25-17.25h-29.2Z"/>
      <path class="cls-2" d="M294.58,233.99v-40.07l-16.39,16.39,16.39,23.68Z"/>
      <path class="cls-2" d="M258.38,181.7l11.58,16.73,24.62-24.62v-21.25h-7.07l-29.13,29.13Z"/>
    </g>
  </g>
  <g id="Shadow">
    <g class="cls-4">
      <g class="cls-1">
        <path d="M195.43,30c91.21,0,165.43,74.21,165.43,165.43,0,48.13-27.83,115.23-80.48,194.04-36.92,55.26-74.96,99.5-84.94,110.86-9.98-11.36-48.02-55.6-84.94-110.86C57.83,310.66,30,243.56,30,195.43,30,104.21,104.21,30,195.43,30m0-20C93.18,10,10,93.18,10,195.43c0,126.89,165.94,313.17,173,321.03,3.32,3.69,7.87,5.54,12.42,5.54s9.11-1.85,12.42-5.54c7.07-7.87,173-194.15,173-321.03,0-102.24-83.18-185.43-185.43-185.43h0Z"/>
      </g>
    </g>
  </g>
</svg>