<svg id="Layer_1_7_" enable-background="new 0 0 48 48" height="512" viewBox="0 0 48 48" width="512" xmlns="http://www.w3.org/2000/svg"><path d="m29 35h-10v-15h10zm-18.2-29.6c-.377-.504-1.223-.504-1.6 0-2.763 3.684-4.024 7.51-4.171 12.6h9.941c-.146-5.09-1.407-8.916-4.17-12.6zm32.2 14.6h-10v15h10zm-4.2-14.6c-.377-.504-1.223-.504-1.6 0-2.763 3.684-4.024 7.51-4.171 12.6h9.941c-.146-5.09-1.407-8.916-4.17-12.6zm-14 0c-.377-.504-1.223-.504-1.6 0-2.763 3.684-4.024 7.51-4.171 12.6h9.941c-.146-5.09-1.407-8.916-4.17-12.6zm4.2 31.6h-10c-.553 0-1 .448-1 1v4c0 .552.447 1 1 1h10c.553 0 1-.448 1-1v-4c0-.552-.447-1-1-1zm14 0h-10c-.553 0-1 .448-1 1v4c0 .552.447 1 1 1h10c.553 0 1-.448 1-1v-4c0-.552-.447-1-1-1zm-28-17h-10v15h10zm0 17h-10c-.553 0-1 .448-1 1v4c0 .552.447 1 1 1h10c.553 0 1-.448 1-1v-4c0-.552-.447-1-1-1z"/></svg>