<svg xmlns="http://www.w3.org/2000/svg" version="1.1" xmlns:xlink="http://www.w3.org/1999/xlink" xmlns:svgjs="http://svgjs.com/svgjs" width="512" height="512" x="0" y="0" viewBox="0 0 512 512" style="enable-background:new 0 0 512 512" xml:space="preserve" class=""><g transform="matrix(1,0,0,1,0,105)"><path d="m6.707 134.09 19.777 4.945V64L6.707 68.945A8.825 8.825 0 0 0 0 77.508v48.02a8.825 8.825 0 0 0 6.707 8.562zM44.137 140.27l52.965-5.915V68.68l-52.965-5.914zM353.102 139.742l79.449 33.102V30.19L353.1 63.293zM512 35.309c0-4.875-3.953-8.825-8.828-8.825h-52.965v150.067h52.965a8.829 8.829 0 0 0 8.828-8.828zM167.723 70.621h17.656v61.793h-17.656zM264.828 70.621h17.656v61.793h-17.656zM203.035 141.242a8.829 8.829 0 0 0 8.828 8.828h26.48a8.829 8.829 0 0 0 8.829-8.828v-17.656h-44.137zM203.035 52.965h44.137V70.62h-44.137zM203.035 88.277h44.137v17.653h-44.137zM167.723 8.828v17.656c0 4.875 3.953 8.825 8.828 8.825h17.656V0h-17.656a8.829 8.829 0 0 0-8.828 8.828zM211.863 0h26.48v35.309h-26.48zM282.484 8.828A8.829 8.829 0 0 0 273.656 0H256v35.309h17.656c4.875 0 8.828-3.95 8.828-8.825zm0 0" fill="#000000" data-original="#000000" class=""></path><path d="M150.07 150.07V61.793a8.829 8.829 0 0 0-8.828-8.828h-17.656a8.829 8.829 0 0 0-8.828 8.828v88.277l25.512 51.11c.632 1.23.964 2.59.972 3.972v15.54h-39.105a8.933 8.933 0 0 0-7.594 4.324l-22.688 37.691a9.43 9.43 0 0 0-1.234 4.594v15.183h60.027l-14.39-21.629a8.83 8.83 0 0 1 2.906-11.53 8.824 8.824 0 0 1 11.75 1.82l17.652 26.484a8.953 8.953 0 0 1 1.504 4.855h51.2l-14.391-21.629a8.831 8.831 0 0 1-1.145-9.226 8.824 8.824 0 0 1 7.75-5.133 8.823 8.823 0 0 1 8.051 4.649l17.653 26.484a8.953 8.953 0 0 1 1.503 4.855h42.371l-14.39-21.629a8.831 8.831 0 0 1-1.145-9.226 8.824 8.824 0 0 1 7.75-5.133 8.823 8.823 0 0 1 8.051 4.649l17.652 26.484a8.953 8.953 0 0 1 1.504 4.855h51.727l23.219-61.793h-48.465v-15.539a8.788 8.788 0 0 1 .972-3.972l25.512-51.11V61.793a8.829 8.829 0 0 0-8.828-8.828h-17.656a8.829 8.829 0 0 0-8.828 8.828v88.277l-17.653 35.309-7.859 15.8a8.835 8.835 0 0 0-.969 3.973v15.54h-97.105v-15.54a8.835 8.835 0 0 0-.969-3.972l-7.86-15.801zM377.469 217.512l-24.367 64.972h48.554a9.544 9.544 0 0 1 .528-3.09l13.242-35.312a8.86 8.86 0 0 1 6.824-5.64 8.86 8.86 0 0 1 9.773 11.82l-12.093 32.222h56.761v-61.793a8.826 8.826 0 0 0-8.828-8.828H385.59a8.658 8.658 0 0 0-8.121 5.649zm0 0" fill="#000000" data-original="#000000" class=""></path><path d="M191.383 193.324a27.13 27.13 0 0 1 2.734 9.711h61.973a28.135 28.135 0 0 1 2.734-9.8l3.883-7.856H187.41zM8.828 282.484h44.137v-15.183a27.041 27.041 0 0 1 3.531-13.242l9.445-15.715H8.828A8.829 8.829 0 0 0 0 247.172v26.484a8.829 8.829 0 0 0 8.828 8.828zM512 273.656v-26.484a8.829 8.829 0 0 0-8.828-8.828h-8.828v44.14h8.828a8.829 8.829 0 0 0 8.828-8.828zm0 0" fill="#000000" data-original="#000000" class=""></path></g></svg>