<svg id="bold" enable-background="new 0 0 24 24" height="512" viewBox="0 0 24 24" width="512" xmlns="http://www.w3.org/2000/svg"><path d="m10 .5c-4.848 0-10 1.577-10 4.5 0 2.872 5.066 4.462 9.84 4.5h.16c4.848 0 10-1.577 10-4.5s-5.152-4.5-10-4.5zm0 6.5c-2.307 0-5-.524-5-2s2.693-2 5-2 5 .524 5 2-2.693 2-5 2z"/><path d="m23.83 17.104-1.11-1.354 1.11-1.354c.227-.276.227-.673.001-.95l-1.112-1.364 1.111-1.356c.184-.225.222-.535.098-.796-.124-.263-.388-.43-.678-.43h-6.628c-1.952.675-4.324 1-6.622 1h-.16c-3.892-.031-7.997-1.005-9.84-3.037v9.787c0 2.708 4.406 4.75 10.25 4.75h13c.29 0 .554-.167.678-.429s.086-.572-.098-.796l-1.111-1.356 1.112-1.364c.226-.278.226-.675-.001-.951z"/><path d="m20 8.5v-1.021c-.346.382-.792.714-1.281 1.021z"/></svg>