<svg height="511pt" viewBox="-70 0 511 511.99928" width="511pt" xmlns="http://www.w3.org/2000/svg"><path d="m247.664062 300.980469c-20.480468 3.839843-40.867187-6.707031-49.582031-25.640625-22.648437-49.175782-64.351562-71.667969-107.761719-63.949219-56.167968 9.992187-123.320312 80.214844-70.851562 175 71.046875 128.351563 283.078125 172.371094 338.382812 65.371094 40.335938-78.058594-9.964843-169.574219-110.1875-150.78125zm0 0"/><path d="m163.90625 180.4375c13.644531 0 26.714844-3.558594 37.199219-7.625v51.773438c9.472656 11.011718 17.59375 23.796874 24.222656 38.199218 1.273437 2.761719 3.308594 5.027344 5.777344 6.589844-.003907-171.402344-.058594-145.027344.238281-172.90625 16.175781 6.316406 38.6875 11.480469 59.976562 4.007812 38.5-13.511718 54.402344-62.035156 55.058594-64.09375 2.042969-6.390624-.402344-13.359374-5.984375-17.070312-1.800781-1.195312-44.527343-29.144531-83.023437-15.632812-28.585938 10.03125-55.515625 44.679687-55.976563 87.90625l-.054687 5.011718c-7.171875-6.996094-15.796875-13.050781-26.015625-16.636718-38.496094-13.507813-81.226563 14.4375-83.023438 15.632812-5.585937 3.710938-8.03125 10.679688-5.988281 17.066406 10.703125 33.484375 37.910156 67.777344 77.59375 67.777344zm0 0"/></svg>