<svg id="Layer_1" enable-background="new 0 0 512 512" height="512" viewBox="0 0 512 512" width="512" xmlns="http://www.w3.org/2000/svg"><g><path d="m460.028 71.233c0-39.278-31.955-71.233-71.233-71.233-35.459 0-64.941 26.046-70.341 60.009l-39.553-39.549c-2.813-2.813-6.628-4.394-10.606-4.394h-112.467c-8.284 0-15 6.716-15 15v90.188h196.307l21.215 21.213c50.954 54.049 55.611 115.823 55.611 140.147v37.229c0 8.077 6.207 15.027 14.275 15.407 8.614.406 15.725-6.458 15.725-14.983v-37.652c0-54.243-18.498-102.731-46.904-140.642 35.398-4.11 62.971-34.257 62.971-70.74zm-71.233-41.233c22.736 0 41.233 18.497 41.233 41.233s-18.497 41.233-41.233 41.233-41.233-18.497-41.233-41.233 18.496-41.233 41.233-41.233z"/><path d="m156.158 335.002c.255 21.423 2.025 42.862 5.263 64.09h101.289c3.238-21.228 5.008-42.667 5.263-64.09z"/><path d="m156.8 305.002h110.533c-1.17-21.489-3.865-42.928-8.03-64.09h-94.473c-4.166 21.162-6.86 42.601-8.03 64.09z"/><path d="m264.396 151.254c7.557 19.446 13.895 39.39 18.945 59.658h65.748c-9.662-21.308-22.196-41.354-37.405-59.658z"/><path d="m293.028 399.092h67.665c6.393-20.611 10.268-42.099 11.466-64.09h-74.179c-.241 21.414-1.91 42.844-4.952 64.09z"/><path d="m372.126 305.002c-1.241-21.995-5.16-43.482-11.599-64.09h-70.687c3.91 21.188 6.438 42.619 7.535 64.09z"/><path d="m192.067 151.254c-8.1 19.375-14.886 39.332-20.298 59.658h80.596c-5.413-20.327-12.198-40.283-20.298-59.658z"/><path d="m74.804 429.092c12.96 28.749 31.133 55.219 54.059 78.215 2.734 2.891 6.605 4.693 10.898 4.693h21.399c-10.671-26.8-18.987-54.598-24.828-82.908z"/><path d="m193.61 512h36.912c11.444-26.666 20.346-54.493 26.603-82.908h-90.117c6.256 28.415 15.158 56.242 26.602 82.908z"/><path d="m262.972 512h21.389c4.145 0 7.897-1.683 10.614-4.401 23.064-23.063 41.338-49.636 54.353-78.507h-61.527c-5.841 28.31-14.158 56.108-24.829 82.908z"/><path d="m159.736 151.254h-47.29c-15.209 18.304-27.744 38.351-37.405 59.658h65.75c5.051-20.268 11.388-40.212 18.945-59.658z"/><path d="m126.153 335.002h-74.181c1.198 21.991 5.073 43.479 11.467 64.09h67.666c-3.042-21.246-4.711-42.676-4.952-64.09z"/><path d="m134.292 240.912h-70.689c-6.439 20.607-10.358 42.095-11.599 64.09h74.753c1.097-21.471 3.624-42.901 7.535-64.09z"/></g></svg>