<?xml version="1.0" encoding="iso-8859-1"?>
<!-- Generator: Adobe Illustrator 19.0.0, SVG Export Plug-In . SVG Version: 6.00 Build 0)  -->
<svg version="1.1" id="Capa_1" xmlns="http://www.w3.org/2000/svg" xmlns:xlink="http://www.w3.org/1999/xlink" x="0px" y="0px"
	 viewBox="0 0 512 512" style="enable-background:new 0 0 512 512;" xml:space="preserve">
<g>
	<g>
		<path d="M427.147,0l-42.426,42.426c-11.333,11.333-17.574,26.4-17.574,42.427c0,5.32,0.702,10.53,2.036,15.537l-84.044,84.044
			l42.426,42.426l84.043-84.043c5.008,1.334,10.218,2.036,15.538,2.036c16.026,0,31.094-6.241,42.427-17.574L512,84.853L427.147,0z
			 M448.361,106.066c-5.667,5.667-13.2,8.787-21.214,8.787c-8.013,0-15.547-3.121-21.213-8.787
			c-5.666-5.666-8.787-13.2-8.787-21.213s3.121-15.547,8.787-21.213l21.213-21.213l42.427,42.426L448.361,106.066z"/>
	</g>
</g>
<g>
	<g>
		<path d="M232.107,301.106l-76.369,76.368l-21.213-21.213l76.368-76.368l-70.711-70.711L34.116,315.249
			c-20.698,20.698-32.439,48.934-33.954,81.657c-1.372,29.625,6.005,60.925,20.771,88.132l2.121,3.908l3.908,2.121
			C51.834,504.565,80.624,512,108.027,512c35.213,0,66.724-12.117,88.724-34.117l106.067-106.066L232.107,301.106z"/>
	</g>
</g>
<g>
	<g>
		
			<rect x="233.926" y="218.066" transform="matrix(0.7071 -0.7071 0.7071 0.7071 -98.1068 259.2802)" width="59.999" height="59.999"/>
	</g>
</g>
<g>
</g>
<g>
</g>
<g>
</g>
<g>
</g>
<g>
</g>
<g>
</g>
<g>
</g>
<g>
</g>
<g>
</g>
<g>
</g>
<g>
</g>
<g>
</g>
<g>
</g>
<g>
</g>
<g>
</g>
</svg>
