<?xml version="1.0" encoding="UTF-8"?><svg id="Lager_1" xmlns="http://www.w3.org/2000/svg" viewBox="0 0 380.04 188.27"><path d="M3.28,63.59l2.15-2.85c2.13,1.62,4.32,2.8,6.56,3.55,2.24,.76,4.74,1.13,7.5,1.13,3.7,0,6.74-1.1,9.14-3.3,2.4-2.2,3.59-5.18,3.59-8.93,0-2.86-.92-5.25-2.77-7.15-1.85-1.9-4.83-3.54-8.95-4.92-5.34-1.8-9.2-3.91-11.58-6.33s-3.57-5.44-3.57-9.06c0-4.5,1.5-8.08,4.49-10.72,2.99-2.64,6.97-3.96,11.91-3.96,2.08,0,4.15,.29,6.19,.88,2.04,.59,4.11,1.53,6.19,2.83l-1.88,2.97c-1.77-1.09-3.53-1.89-5.27-2.4-1.75-.51-3.66-.76-5.74-.76-3.49,0-6.37,.96-8.63,2.89-2.27,1.93-3.4,4.53-3.4,7.81,0,2.81,1.01,5.18,3.03,7.11,2.02,1.93,5.28,3.65,9.79,5.16,4.95,1.64,8.53,3.66,10.74,6.05,2.21,2.4,3.32,5.44,3.32,9.14,0,5.03-1.51,8.99-4.53,11.89-3.02,2.9-7.08,4.36-12.19,4.36-3.1,0-5.94-.43-8.52-1.29s-5.1-2.23-7.58-4.1Z"/><path d="M72.39,68.01h-3.59v-8.01h-.16c-1.28,2.73-3.13,4.92-5.57,6.54-2.44,1.63-5.14,2.44-8.11,2.44-3.8,0-6.81-1.07-9.02-3.2-2.21-2.13-3.32-4.83-3.32-8.09,0-3.44,1.09-6.22,3.26-8.34,2.17-2.12,5.94-3.59,11.31-4.39l11.6-1.76v-1.29c-.16-3.85-1.05-6.75-2.68-8.69-1.63-1.94-4.03-2.91-7.21-2.91-2.4,0-4.58,.4-6.56,1.19-1.98,.79-3.84,2.04-5.59,3.73l-2.3-2.34c2.08-2,4.3-3.48,6.64-4.43,2.34-.95,4.96-1.43,7.85-1.43,4.45,0,7.81,1.28,10.06,3.83,2.25,2.55,3.38,6.26,3.38,11.13v26.02Zm-3.59-17.62v-3.91l-11.02,1.6c-4.3,.62-7.27,1.68-8.91,3.16s-2.46,3.58-2.46,6.29c0,2.37,.79,4.32,2.36,5.86,1.58,1.54,3.77,2.3,6.58,2.3,3.85,0,7.06-1.43,9.61-4.28,2.55-2.85,3.83-6.53,3.83-11.04Z"/><path d="M112.17,28.01l-15.9,40h-3.28l-15.47-40h4.02l11.91,31.84c.29,.76,.53,1.48,.72,2.19s.36,1.37,.49,1.99h.16c.18-.83,.36-1.58,.55-2.25,.18-.66,.38-1.26,.59-1.78l12.3-31.99h3.91Z"/><path d="M148.58,48.16h-29.61c0,6.15,1.36,10.61,4.08,13.38,2.72,2.77,6.19,4.16,10.41,4.16,2,0,3.98-.34,5.94-1.02,1.95-.68,3.85-1.74,5.7-3.2l2.03,2.62c-2.16,1.69-4.38,2.93-6.66,3.71-2.28,.78-4.8,1.17-7.56,1.17-4.92,0-9.1-1.67-12.54-5.02-3.44-3.35-5.16-8.74-5.16-16.19,0-5.86,1.66-10.78,4.98-14.77s7.64-5.98,12.95-5.98c4.97,0,8.79,1.75,11.45,5.23,2.66,3.49,3.98,8.26,3.98,14.3v1.6Zm-3.75-3.28c-.16-4.61-1.26-8.19-3.32-10.74-2.06-2.55-4.9-3.83-8.52-3.83s-6.86,1.26-9.32,3.77c-2.46,2.51-3.98,6.11-4.55,10.8h25.7Z"/><path d="M219.15,64.1c-2.89,1.64-5.83,2.87-8.81,3.67-2.98,.81-5.97,1.21-8.96,1.21-7.68,0-13.88-2.59-18.59-7.77-4.71-5.18-7.07-11.98-7.07-20.39s2.51-15.57,7.54-21.25c5.03-5.68,11.88-8.52,20.55-8.52,2.71,0,5.25,.29,7.62,.88,2.37,.59,4.79,1.54,7.27,2.87l-1.68,3.09c-2.19-1.17-4.34-2.02-6.45-2.54-2.11-.52-4.4-.78-6.88-.78-7.42,0-13.28,2.41-17.56,7.23-4.28,4.82-6.43,10.96-6.43,18.44,0,7.87,2.01,14.03,6.04,18.5,4.02,4.47,9.45,6.7,16.27,6.7,2.53,0,4.9-.29,7.11-.88,2.21-.59,4.27-1.43,6.17-2.52v-18.36h-13.2v-3.52h17.07v23.95Z"/><path d="M257.52,68.01h-3.59v-8.01h-.16c-1.28,2.73-3.13,4.92-5.57,6.54-2.44,1.63-5.14,2.44-8.11,2.44-3.8,0-6.81-1.07-9.02-3.2-2.21-2.13-3.32-4.83-3.32-8.09,0-3.44,1.09-6.22,3.26-8.34,2.17-2.12,5.94-3.59,11.31-4.39l11.6-1.76v-1.29c-.16-3.85-1.05-6.75-2.68-8.69-1.63-1.94-4.03-2.91-7.21-2.91-2.4,0-4.58,.4-6.56,1.19-1.98,.79-3.84,2.04-5.59,3.73l-2.3-2.34c2.08-2,4.3-3.48,6.64-4.43,2.34-.95,4.96-1.43,7.85-1.43,4.45,0,7.81,1.28,10.06,3.83,2.25,2.55,3.38,6.26,3.38,11.13v26.02Zm-3.59-17.62v-3.91l-11.02,1.6c-4.3,.62-7.27,1.68-8.91,3.16s-2.46,3.58-2.46,6.29c0,2.37,.79,4.32,2.36,5.86,1.58,1.54,3.77,2.3,6.58,2.3,3.85,0,7.06-1.43,9.61-4.28,2.55-2.85,3.83-6.53,3.83-11.04Z"/><path d="M322.02,68.01h-3.59v-24.06c0-5.03-.79-8.55-2.36-10.59-1.58-2.03-4.07-3.05-7.48-3.05-3.15,0-5.87,1.35-8.16,4.06-2.29,2.71-3.44,6.11-3.44,10.2v23.44h-3.59v-24.34c0-4.45-.85-7.79-2.54-10.02-1.69-2.23-4.23-3.34-7.62-3.34s-5.96,1.36-8.12,4.08c-2.16,2.72-3.24,6.24-3.24,10.57v23.05h-3.59V28.01h3.59v6.64h.16c1.41-2.55,3.12-4.46,5.16-5.72,2.03-1.26,4.39-1.89,7.07-1.89,2.92,0,5.41,.84,7.48,2.52s3.47,3.89,4.2,6.62c1.25-2.89,3.04-5.14,5.37-6.74,2.33-1.6,4.86-2.4,7.6-2.4,4.38,0,7.66,1.35,9.84,4.06,2.19,2.71,3.28,6.77,3.28,12.19v24.73Z"/><path d="M363.2,48.16h-29.61c0,6.15,1.36,10.61,4.08,13.38,2.72,2.77,6.19,4.16,10.41,4.16,2,0,3.98-.34,5.94-1.02,1.95-.68,3.85-1.74,5.7-3.2l2.03,2.62c-2.16,1.69-4.38,2.93-6.66,3.71-2.28,.78-4.8,1.17-7.56,1.17-4.92,0-9.1-1.67-12.54-5.02-3.44-3.35-5.16-8.74-5.16-16.19,0-5.86,1.66-10.78,4.98-14.77s7.64-5.98,12.95-5.98c4.97,0,8.79,1.75,11.45,5.23,2.66,3.49,3.98,8.26,3.98,14.3v1.6Zm-3.75-3.28c-.16-4.61-1.26-8.19-3.32-10.74-2.06-2.55-4.9-3.83-8.52-3.83s-6.86,1.26-9.32,3.77c-2.46,2.51-3.98,6.11-4.55,10.8h25.7Z"/><path d="M45.12,161.82c-2.5,1.12-4.92,1.93-7.27,2.42s-4.88,.74-7.62,.74c-7.66,0-13.9-2.57-18.73-7.71-4.83-5.14-7.25-11.86-7.25-20.14,0-9.09,2.64-16.37,7.91-21.86,5.27-5.48,11.99-8.22,20.14-8.22,2.13,0,4.22,.19,6.27,.57,2.04,.38,4.17,1,6.39,1.86l-1.25,3.28c-2.01-.78-3.93-1.34-5.78-1.68-1.85-.34-3.84-.51-5.98-.51-6.93,0-12.61,2.38-17.05,7.15-4.44,4.77-6.66,11.11-6.66,19.02s2.1,13.65,6.31,18.07c4.21,4.41,9.5,6.62,15.88,6.62,2.34,0,4.57-.23,6.68-.68,2.11-.46,4.3-1.18,6.56-2.17l1.45,3.24Z"/><path d="M70.87,164.98c-5.83,0-10.45-1.92-13.85-5.76-3.4-3.84-5.1-8.83-5.1-14.98,0-6.64,1.78-11.84,5.33-15.59s8.24-5.62,14.04-5.62,10.21,1.86,13.52,5.59c3.31,3.72,4.96,8.88,4.96,15.47,0,6.22-1.69,11.26-5.06,15.12-3.37,3.85-7.99,5.78-13.85,5.78Zm.12-3.28c4.82,0,8.53-1.56,11.13-4.69,2.6-3.12,3.91-7.46,3.91-13.01s-1.3-10.08-3.89-13.12c-2.59-3.05-6.26-4.57-11-4.57s-8.47,1.59-11.27,4.77c-2.8,3.18-4.2,7.59-4.2,13.24,0,5.23,1.37,9.44,4.1,12.62,2.73,3.18,6.47,4.77,11.21,4.77Z"/><path d="M152.17,164.01h-3.59v-24.06c0-5.03-.79-8.55-2.36-10.59-1.58-2.03-4.07-3.05-7.48-3.05-3.15,0-5.87,1.35-8.16,4.06-2.29,2.71-3.44,6.11-3.44,10.2v23.44h-3.59v-24.34c0-4.45-.85-7.79-2.54-10.02-1.69-2.23-4.23-3.34-7.62-3.34s-5.96,1.36-8.12,4.08c-2.16,2.72-3.24,6.24-3.24,10.57v23.05h-3.59v-40h3.59v6.64h.16c1.41-2.55,3.12-4.46,5.16-5.72,2.03-1.26,4.39-1.89,7.07-1.89,2.92,0,5.41,.84,7.48,2.52s3.47,3.89,4.2,6.62c1.25-2.89,3.04-5.14,5.37-6.74,2.33-1.6,4.86-2.4,7.6-2.4,4.38,0,7.66,1.35,9.84,4.06,2.19,2.71,3.28,6.77,3.28,12.19v24.73Z"/><path d="M166.63,156.9h-.16v25.51h-3.59v-58.4h3.59v8.24h.16c1.41-2.94,3.45-5.21,6.13-6.82,2.68-1.6,5.62-2.4,8.83-2.4,5.08,0,9.04,1.75,11.89,5.25,2.85,3.5,4.28,8.26,4.28,14.28,0,6.69-1.63,12.1-4.9,16.23-3.27,4.13-7.58,6.19-12.95,6.19-3,0-5.61-.67-7.83-2.01s-4.04-3.37-5.45-6.07Zm-.16-14.88v5.04c0,4.01,1.26,7.46,3.79,10.33,2.53,2.88,5.85,4.32,9.96,4.32s7.41-1.75,9.96-5.25c2.55-3.5,3.83-8.11,3.83-13.81,0-5-1.17-8.97-3.52-11.91-2.34-2.94-5.47-4.41-9.38-4.41-4.66,0-8.27,1.56-10.82,4.69-2.55,3.12-3.83,6.8-3.83,11.02Z"/><path d="M233.9,164.01h-3.59v-8.01h-.16c-1.28,2.73-3.13,4.92-5.57,6.54-2.44,1.63-5.14,2.44-8.11,2.44-3.8,0-6.81-1.07-9.02-3.2-2.21-2.13-3.32-4.83-3.32-8.09,0-3.44,1.09-6.22,3.26-8.34,2.17-2.12,5.94-3.59,11.31-4.39l11.6-1.76v-1.29c-.16-3.85-1.05-6.75-2.68-8.69-1.63-1.94-4.03-2.91-7.21-2.91-2.4,0-4.58,.4-6.56,1.19-1.98,.79-3.84,2.04-5.59,3.73l-2.3-2.34c2.08-2,4.3-3.48,6.64-4.43,2.34-.95,4.96-1.43,7.85-1.43,4.45,0,7.81,1.28,10.06,3.83,2.25,2.55,3.38,6.26,3.38,11.13v26.02Zm-3.59-17.62v-3.91l-11.02,1.6c-4.3,.62-7.27,1.68-8.91,3.16s-2.46,3.58-2.46,6.29c0,2.37,.79,4.32,2.36,5.86,1.58,1.54,3.77,2.3,6.58,2.3,3.85,0,7.06-1.43,9.61-4.28,2.55-2.85,3.83-6.53,3.83-11.04Z"/><path d="M275.44,164.01h-3.59v-23.28c0-4.82-.87-8.42-2.6-10.82-1.73-2.4-4.33-3.59-7.79-3.59-3.85,0-7.02,1.41-9.49,4.24-2.47,2.83-3.71,6.32-3.71,10.49v22.97h-3.59v-40h3.59v7.27h.16c1.46-2.76,3.33-4.82,5.61-6.19,2.28-1.37,4.97-2.05,8.07-2.05,4.32,0,7.63,1.44,9.92,4.32,2.29,2.88,3.44,6.99,3.44,12.32v24.34Z"/><path d="M287.94,114.09c-.89,0-1.63-.31-2.23-.94-.6-.62-.9-1.37-.9-2.23s.3-1.62,.9-2.21c.6-.59,1.34-.88,2.23-.88s1.68,.29,2.3,.88,.94,1.31,.94,2.17-.31,1.64-.94,2.27-1.39,.94-2.3,.94Zm1.84,49.92h-3.59v-40h3.59v40Z"/><path d="M317.37,164.98c-5.83,0-10.45-1.92-13.85-5.76-3.4-3.84-5.1-8.83-5.1-14.98,0-6.64,1.78-11.84,5.33-15.59s8.24-5.62,14.04-5.62,10.21,1.86,13.52,5.59c3.31,3.72,4.96,8.88,4.96,15.47,0,6.22-1.69,11.26-5.06,15.12-3.37,3.85-7.99,5.78-13.85,5.78Zm.12-3.28c4.82,0,8.53-1.56,11.13-4.69,2.6-3.12,3.91-7.46,3.91-13.01s-1.3-10.08-3.89-13.12c-2.59-3.05-6.26-4.57-11-4.57s-8.47,1.59-11.27,4.77c-2.8,3.18-4.2,7.59-4.2,13.24,0,5.23,1.37,9.44,4.1,12.62,2.73,3.18,6.47,4.77,11.21,4.77Z"/><path d="M375.7,164.01h-3.59v-23.28c0-4.82-.87-8.42-2.6-10.82-1.73-2.4-4.33-3.59-7.79-3.59-3.85,0-7.02,1.41-9.49,4.24-2.47,2.83-3.71,6.32-3.71,10.49v22.97h-3.59v-40h3.59v7.27h.16c1.46-2.76,3.33-4.82,5.61-6.19,2.28-1.37,4.97-2.05,8.07-2.05,4.32,0,7.63,1.44,9.92,4.32,2.29,2.88,3.44,6.99,3.44,12.32v24.34Z"/></svg>